<svg xmlns="http://www.w3.org/2000/svg" viewBox="0 0 817.0 200" fill="none"><path d="M 130 56 A 52 52 0 1 0 130 144" stroke="#0A0A0B" stroke-width="13" stroke-linecap="round" fill="none"/><path d="M 96 80 L 80 100 L 96 120" stroke="#0A0A0B" stroke-width="9" stroke-linecap="round" stroke-linejoin="round"/><path d="M 120 80 L 136 100 L 120 120" stroke="#0A0A0B" stroke-width="9" stroke-linecap="round" stroke-linejoin="round"/><g transform="translate(199,138.475) scale(0.135,-0.135)" fill="#0A0A0B"><path transform="translate(0,0)" d="M303 -14Q231 -14 172.5 16.0Q114 46 80.0 103.0Q46 160 46 241V255Q46 336 80.0 393.0Q114 450 172.5 480.0Q231 510 303 510Q374 510 425.0 485.0Q476 460 507.5 416.5Q539 373 549 318L427 292Q423 322 409.0 346.0Q395 370 369.5 384.0Q344 398 306 398Q268 398 237.5 381.5Q207 365 189.5 332.5Q172 300 172 253V243Q172 196 189.5 163.5Q207 131 237.5 114.5Q268 98 306 98Q363 98 392.5 127.5Q422 157 430 205L552 176Q539 123 507.5 79.5Q476 36 425.0 11.0Q374 -14 303 -14Z"/><path transform="translate(556,0)" d="M70 0V700H196V435H214Q222 451 239.0 467.0Q256 483 284.5 493.5Q313 504 357 504Q415 504 458.5 477.5Q502 451 526.0 404.5Q550 358 550 296V0H424V286Q424 342 396.5 370.0Q369 398 318 398Q260 398 228.0 359.5Q196 321 196 252V0Z"/><path transform="translate(1142,0)" d="M224 -14Q171 -14 129.0 4.5Q87 23 62.5 58.5Q38 94 38 145Q38 196 62.5 230.5Q87 265 130.5 282.5Q174 300 230 300H366V328Q366 363 344.0 385.5Q322 408 274 408Q227 408 204.0 386.5Q181 365 174 331L58 370Q70 408 96.5 439.5Q123 471 167.5 490.5Q212 510 276 510Q374 510 431.0 461.0Q488 412 488 319V134Q488 104 516 104H556V0H472Q435 0 411.0 18.0Q387 36 387 66V67H368Q364 55 350.0 35.5Q336 16 306.0 1.0Q276 -14 224 -14ZM246 88Q299 88 332.5 117.5Q366 147 366 196V206H239Q204 206 184.0 191.0Q164 176 164 149Q164 122 185.0 105.0Q206 88 246 88Z"/><path transform="translate(1690,0)" d="M70 0V496H194V440H212Q223 470 248.5 484.0Q274 498 308 498H368V386H306Q258 386 227.0 360.5Q196 335 196 282V0Z"/><path transform="translate(2056,0)" d="M70 0V700H196V0Z"/><path transform="translate(2292,0)" d="M276 -14Q179 -14 117.0 28.0Q55 70 42 148L158 178Q165 143 181.5 123.0Q198 103 222.5 94.5Q247 86 276 86Q320 86 341.0 101.5Q362 117 362 140Q362 163 342.0 175.5Q322 188 278 196L250 201Q198 211 155.0 228.5Q112 246 86.0 277.0Q60 308 60 357Q60 431 114.0 470.5Q168 510 256 510Q339 510 394.0 473.0Q449 436 466 376L349 340Q341 378 316.5 394.0Q292 410 256 410Q220 410 201.0 397.5Q182 385 182 363Q182 339 202.0 327.5Q222 316 256 310L284 305Q340 295 385.5 278.5Q431 262 457.5 231.5Q484 201 484 149Q484 71 427.5 28.5Q371 -14 276 -14Z"/><path transform="translate(2786,0)" d="M270 -14Q211 -14 159.5 15.5Q108 45 77.0 102.0Q46 159 46 240V256Q46 337 77.0 394.0Q108 451 159.0 480.5Q210 510 270 510Q315 510 345.5 499.5Q376 489 395.0 473.0Q414 457 424 439H442V700H568V0H444V60H426Q409 32 373.5 9.0Q338 -14 270 -14ZM308 96Q366 96 405.0 133.5Q444 171 444 243V253Q444 325 405.5 362.5Q367 400 308 400Q250 400 211.0 362.5Q172 325 172 253V243Q172 171 211.0 133.5Q250 96 308 96Z"/><path transform="translate(3394,0)" d="M296 -14Q222 -14 165.5 17.5Q109 49 77.5 106.5Q46 164 46 242V254Q46 332 77.0 389.5Q108 447 164.0 478.5Q220 510 294 510Q367 510 421.0 477.5Q475 445 505.0 387.5Q535 330 535 254V211H174Q176 160 212.0 128.0Q248 96 300 96Q353 96 378.0 119.0Q403 142 416 170L519 116Q505 90 478.5 59.5Q452 29 408.0 7.5Q364 -14 296 -14ZM175 305H407Q403 348 372.5 374.0Q342 400 293 400Q242 400 212.0 374.0Q182 348 175 305Z"/><path transform="translate(3941,0)" d="M174 0 16 496H150L265 92H283L398 496H532L374 0Z"/></g></svg>